name rise36.2859peak64.2979fall75.1499.mot
datacolumns 19
datarows 24
range 19.63826000000000 19.67659300000000
endheader
time	ground_force1_vx	ground_force1_vy	ground_force1_vz	ground_force1_px	ground_force1_py	ground_force1_pz	ground_force2_vx	ground_force2_vy	ground_force2_vz	ground_force2_px	ground_force2_py	ground_force2_pz	ground_torque1_x	ground_torque1_y	ground_torque1_z	ground_torque2_x	ground_torque2_y	ground_torque2_z	
19.63826000000000	11.80539800000000	719.26922400000001	47.21413300000000	0.30214200000000	0.00000000000000	0.09256100000000	0.00000000000000	0.00000000000000	0.00000000000000	0.00000000000000	0.00000000000000	0.00000000000000	0.00000000000000	26.29913400000000	0.00000000000000	0.00000000000000	0.00000000000000	0.00000000000000	
19.63992700000000	11.61195900000000	718.76877600000000	47.14654800000000	0.30072800000000	0.00000000000000	0.09254000000000	0.00000000000000	0.00000000000000	0.00000000000000	0.00000000000000	0.00000000000000	0.00000000000000	0.00000000000000	26.21695600000000	0.00000000000000	0.00000000000000	0.00000000000000	0.00000000000000	
19.64159200000000	11.41737600000000	718.30887600000005	47.08479900000000	0.29934600000000	0.00000000000000	0.09251700000000	0.00000000000000	0.00000000000000	0.00000000000000	0.00000000000000	0.00000000000000	0.00000000000000	0.00000000000000	26.14099900000000	0.00000000000000	0.00000000000000	0.00000000000000	0.00000000000000	
19.64326500000000	11.22118500000000	717.88932100000000	47.02858200000000	0.29799400000000	0.00000000000000	0.09249100000000	0.00000000000000	0.00000000000000	0.00000000000000	0.00000000000000	0.00000000000000	0.00000000000000	0.00000000000000	26.07119400000000	0.00000000000000	0.00000000000000	0.00000000000000	0.00000000000000	
19.64492800000000	11.02292200000000	717.50987699999996	46.97758500000000	0.29667600000000	0.00000000000000	0.09246200000000	0.00000000000000	0.00000000000000	0.00000000000000	0.00000000000000	0.00000000000000	0.00000000000000	0.00000000000000	26.00746300000000	0.00000000000000	0.00000000000000	0.00000000000000	0.00000000000000	
19.64659000000000	10.82212600000000	717.17028300000004	46.93149300000000	0.29539100000000	0.00000000000000	0.09243000000000	0.00000000000000	0.00000000000000	0.00000000000000	0.00000000000000	0.00000000000000	0.00000000000000	0.00000000000000	25.94971900000000	0.00000000000000	0.00000000000000	0.00000000000000	0.00000000000000	
19.64825600000000	10.61834100000000	716.87026400000002	46.88998700000000	0.29414100000000	0.00000000000000	0.09239600000000	0.00000000000000	0.00000000000000	0.00000000000000	0.00000000000000	0.00000000000000	0.00000000000000	0.00000000000000	25.89786600000000	0.00000000000000	0.00000000000000	0.00000000000000	0.00000000000000	
19.64992900000000	10.41111800000000	716.60953099999995	46.85274700000000	0.29292600000000	0.00000000000000	0.09235800000000	0.00000000000000	0.00000000000000	0.00000000000000	0.00000000000000	0.00000000000000	0.00000000000000	0.00000000000000	25.85180300000000	0.00000000000000	0.00000000000000	0.00000000000000	0.00000000000000	
19.65159600000000	10.20001400000000	716.38778700000000	46.81945500000000	0.29174700000000	0.00000000000000	0.09231800000000	0.00000000000000	0.00000000000000	0.00000000000000	0.00000000000000	0.00000000000000	0.00000000000000	0.00000000000000	25.81142200000000	0.00000000000000	0.00000000000000	0.00000000000000	0.00000000000000	
19.65325800000000	9.98459700000000	716.20473600000003	46.78979700000000	0.29060400000000	0.00000000000000	0.09227400000000	0.00000000000000	0.00000000000000	0.00000000000000	0.00000000000000	0.00000000000000	0.00000000000000	0.00000000000000	25.77660900000000	0.00000000000000	0.00000000000000	0.00000000000000	0.00000000000000	
19.65492300000000	9.76444500000000	716.06008599999996	46.76345900000000	0.28949800000000	0.00000000000000	0.09222800000000	0.00000000000000	0.00000000000000	0.00000000000000	0.00000000000000	0.00000000000000	0.00000000000000	0.00000000000000	25.74724200000000	0.00000000000000	0.00000000000000	0.00000000000000	0.00000000000000	
19.65659400000000	9.53914800000000	715.95355400000005	46.74013700000000	0.28842800000000	0.00000000000000	0.09217800000000	0.00000000000000	0.00000000000000	0.00000000000000	0.00000000000000	0.00000000000000	0.00000000000000	0.00000000000000	25.72319900000000	0.00000000000000	0.00000000000000	0.00000000000000	0.00000000000000	
19.65826000000000	9.30831200000000	715.88486899999998	46.71953400000000	0.28739400000000	0.00000000000000	0.09212500000000	0.00000000000000	0.00000000000000	0.00000000000000	0.00000000000000	0.00000000000000	0.00000000000000	0.00000000000000	25.70435000000000	0.00000000000000	0.00000000000000	0.00000000000000	0.00000000000000	
19.65993000000000	9.07155500000000	715.85378100000003	46.70136000000000	0.28639600000000	0.00000000000000	0.09207000000000	0.00000000000000	0.00000000000000	0.00000000000000	0.00000000000000	0.00000000000000	0.00000000000000	0.00000000000000	25.69056200000000	0.00000000000000	0.00000000000000	0.00000000000000	0.00000000000000	
19.66159300000000	8.82851300000000	715.86005899999998	46.68533600000000	0.28543400000000	0.00000000000000	0.09201100000000	0.00000000000000	0.00000000000000	0.00000000000000	0.00000000000000	0.00000000000000	0.00000000000000	0.00000000000000	25.68170000000000	0.00000000000000	0.00000000000000	0.00000000000000	0.00000000000000	
19.66325500000000	8.57884200000000	715.90349800000001	46.67119600000000	0.28450600000000	0.00000000000000	0.09194900000000	0.00000000000000	0.00000000000000	0.00000000000000	0.00000000000000	0.00000000000000	0.00000000000000	0.00000000000000	25.67762300000000	0.00000000000000	0.00000000000000	0.00000000000000	0.00000000000000	
19.66492500000000	8.32221300000000	715.98392200000001	46.65868400000000	0.28361200000000	0.00000000000000	0.09188500000000	0.00000000000000	0.00000000000000	0.00000000000000	0.00000000000000	0.00000000000000	0.00000000000000	0.00000000000000	25.67819100000000	0.00000000000000	0.00000000000000	0.00000000000000	0.00000000000000	
19.66659400000000	8.05832000000000	716.10118399999999	46.64756000000000	0.28275200000000	0.00000000000000	0.09181700000000	0.00000000000000	0.00000000000000	0.00000000000000	0.00000000000000	0.00000000000000	0.00000000000000	0.00000000000000	25.68325900000000	0.00000000000000	0.00000000000000	0.00000000000000	0.00000000000000	
19.66826100000000	7.78687800000000	716.25517000000002	46.63759800000000	0.28192400000000	0.00000000000000	0.09174700000000	0.00000000000000	0.00000000000000	0.00000000000000	0.00000000000000	0.00000000000000	0.00000000000000	0.00000000000000	25.69268200000000	0.00000000000000	0.00000000000000	0.00000000000000	0.00000000000000	
19.66992900000000	7.50762500000000	716.44580099999996	46.62858600000000	0.28112700000000	0.00000000000000	0.09167400000000	0.00000000000000	0.00000000000000	0.00000000000000	0.00000000000000	0.00000000000000	0.00000000000000	0.00000000000000	25.70631100000000	0.00000000000000	0.00000000000000	0.00000000000000	0.00000000000000	
19.67159300000000	7.22032100000000	716.67303400000003	46.62032900000000	0.28036000000000	0.00000000000000	0.09159900000000	0.00000000000000	0.00000000000000	0.00000000000000	0.00000000000000	0.00000000000000	0.00000000000000	0.00000000000000	25.72399900000000	0.00000000000000	0.00000000000000	0.00000000000000	0.00000000000000	
19.67325600000000	6.92475200000000	716.93686100000002	46.61265000000000	0.27962200000000	0.00000000000000	0.09152200000000	0.00000000000000	0.00000000000000	0.00000000000000	0.00000000000000	0.00000000000000	0.00000000000000	0.00000000000000	25.74559500000000	0.00000000000000	0.00000000000000	0.00000000000000	0.00000000000000	
19.67492500000000	6.62072800000000	717.23731099999998	46.60538700000000	0.27891000000000	0.00000000000000	0.09144200000000	0.00000000000000	0.00000000000000	0.00000000000000	0.00000000000000	0.00000000000000	0.00000000000000	0.00000000000000	25.77094900000000	0.00000000000000	0.00000000000000	0.00000000000000	0.00000000000000	
19.67659300000000	6.30808700000000	717.57444899999996	46.59839700000000	0.27822500000000	0.00000000000000	0.09135900000000	0.00000000000000	0.00000000000000	0.00000000000000	0.00000000000000	0.00000000000000	0.00000000000000	0.00000000000000	25.79991000000000	0.00000000000000	0.00000000000000	0.00000000000000	0.00000000000000	
